<svg xmlns="http://www.w3.org/2000/svg" xml:space="preserve" id="Camada_1" x="0" y="0" style="enable-background:new 0 0 796 200" version="1.1" viewBox="0 0 796 200"><style>.st0{fill:#fff}</style><path d="M72.4 124h15.5l12.1 16.4 12.1-16.4h15.5L100 86.9z" class="st0"/><path d="M156.3 0H43.7C19.5 0 0 19.5 0 43.7v112.7C0 180.5 19.5 200 43.7 200h112.7c24.1 0 43.7-19.5 43.7-43.7V43.7C200 19.5 180.5 0 156.3 0zM128 124l-28 38-28-38H36l64-86 64 86h-36zM260 142.1V58.7h10.2v83.4H260zM287.5 142.1V79.6h9.1v15.1l-1.5-2c.7-1.9 1.7-3.7 2.8-5.3 1.2-1.6 2.5-3 4-4 1.6-1.3 3.4-2.3 5.5-3 2-.7 4.1-1.1 6.2-1.2 2.1-.2 4.1 0 5.9.4v9.7c-2.1-.6-4.5-.7-7.1-.5-2.6.3-4.9 1.2-7.1 2.8-2 1.4-3.5 3.2-4.7 5.2-1.1 2-1.8 4.3-2.2 6.7-.4 2.4-.6 4.8-.6 7.2v31.4h-10.3zM355.6 143.8c-6.2 0-11.5-1.4-16-4.2-4.4-2.8-7.9-6.7-10.3-11.7-2.4-5-3.6-10.7-3.6-17.1 0-6.6 1.2-12.3 3.7-17.3 2.5-4.9 5.9-8.8 10.4-11.5 4.5-2.8 9.7-4.2 15.8-4.2 6.2 0 11.5 1.4 16 4.2 4.5 2.8 7.9 6.7 10.3 11.6 2.4 4.9 3.6 10.6 3.6 17.1 0 6.5-1.2 12.3-3.6 17.3-2.4 4.9-5.9 8.8-10.3 11.6-4.5 2.8-9.8 4.2-16 4.2zm0-9.7c6.4 0 11.2-2.2 14.4-6.5 3.1-4.3 4.7-9.9 4.7-16.8 0-7.1-1.6-12.7-4.8-16.8-3.2-4.2-7.9-6.3-14.3-6.3-4.3 0-7.9 1-10.7 3-2.8 2-4.9 4.7-6.3 8.2-1.4 3.5-2.1 7.5-2.1 12 0 7 1.6 12.7 4.8 16.9 3.4 4.1 8.1 6.3 14.3 6.3zM442.4 142.1v-31.3c0-3-.3-5.8-.8-8.6-.5-2.7-1.4-5.2-2.7-7.4-1.3-2.2-3-3.9-5.2-5.2-2.1-1.3-4.9-1.9-8.2-1.9-2.6 0-4.9.4-7 1.3-2.1.8-3.8 2.2-5.3 3.9-1.5 1.8-2.7 4-3.5 6.7-.8 2.7-1.2 5.8-1.2 9.4l-6.7-2.1c0-6.1 1.1-11.3 3.2-15.6 2.2-4.4 5.2-7.7 9.1-10 3.9-2.4 8.6-3.5 13.9-3.5 4 0 7.5.6 10.3 1.9 2.8 1.3 5.2 3 7.1 5.1 1.9 2.1 3.4 4.4 4.4 7.1 1.1 2.6 1.8 5.2 2.2 7.9.5 2.7.7 5.2.7 7.6V142h-10.3zm-44.2 0V79.6h9.2v16.7h1.1v45.8h-10.3zM485.3 142.1l-24-83.4H472l18.4 65.9 18.3-65.9 10.7-.1 18.4 65.9 18.3-65.9H567L543 142h-10.2l-18.6-65.4-18.6 65.4h-10.3zM589.2 143.8c-4.6 0-8.5-.8-11.7-2.5-3.1-1.7-5.5-4-7.1-6.8-1.6-2.8-2.4-5.9-2.4-9.3 0-3.3.6-6.1 1.8-8.5 1.3-2.4 3-4.4 5.3-6 2.3-1.6 5-2.9 8.1-3.8 2.9-.8 6.2-1.5 9.9-2.1 3.7-.6 7.4-1.2 11.1-1.7 3.8-.5 7.3-1 10.5-1.4l-3.7 2.1c.1-5.6-1-9.7-3.3-12.3-2.3-2.7-6.3-4-12-4-3.8 0-7 .9-9.9 2.6-2.8 1.7-4.8 4.5-5.9 8.3l-9.7-3c1.5-5.5 4.4-9.8 8.7-12.9 4.3-3.1 9.9-4.7 16.9-4.7 5.6 0 10.5 1 14.5 3.1 4.1 2 7 5.1 8.7 9.1.9 1.9 1.4 4 1.7 6.3.2 2.2.3 4.6.3 7.1v38.7h-9.1v-15l2.1 1.4c-2.3 5.1-5.6 8.9-9.8 11.5-3.9 2.5-9 3.8-15 3.8zm1.6-8.6c3.7 0 6.9-.7 9.5-2 2.7-1.4 4.9-3.1 6.5-5.3 1.6-2.2 2.7-4.6 3.2-7.2.6-1.9.9-4.1.9-6.4.1-2.4.1-4.2.1-5.5l3.6 1.6c-3.3.5-6.6.9-9.8 1.3-3.2.4-6.3.9-9.1 1.4-2.9.5-5.5 1-7.8 1.7-1.7.5-3.3 1.2-4.8 2.1-1.5.8-2.6 1.9-3.6 3.3-.9 1.3-1.3 3-1.3 4.9 0 1.7.4 3.3 1.3 4.9.9 1.5 2.2 2.8 4 3.8 1.9.9 4.3 1.4 7.3 1.4zM637.4 142.1V57h10.2v85.1h-10.2zM666 142.1V57h10.2v85.1H666zM720.4 143.8c-6.1 0-11.4-1.4-16-4.1-4.5-2.7-8-6.5-10.6-11.4-2.5-4.9-3.8-10.6-3.8-17.1 0-6.8 1.2-12.7 3.7-17.7s6-8.9 10.4-11.6c4.5-2.7 9.7-4.1 15.7-4.1 6.2 0 11.5 1.4 15.9 4.3s7.7 7 9.9 12.4 3.2 11.8 2.9 19.2h-10.3V110c-.1-7.7-1.7-13.4-4.7-17.2-3-3.8-7.4-5.7-13.3-5.7-6.3 0-11.1 2-14.4 6.1-3.3 4.1-4.9 10-4.9 17.6 0 7.4 1.6 13.1 4.9 17.1 3.3 4.1 8 6.1 14.1 6.1 4.1 0 7.7-.9 10.7-2.8 3-1.9 5.4-4.6 7.1-8.2l9.8 3.4c-2.4 5.5-6.1 9.8-10.9 12.9-4.8 3-10.2 4.5-16.2 4.5zm-23-30.1v-8.3h45.8v8.3h-45.8zM796 142.1c-3.7.7-7.3 1-10.9.9-3.6-.1-6.7-.8-9.5-2.1-2.8-1.4-4.9-3.4-6.4-6.3-1.2-2.5-1.9-5-2-7.5-.1-2.5-.1-5.4-.1-8.6V62.2h10.2V118c0 2.5 0 4.7.1 6.5.1 1.8.5 3.4 1.2 4.7 1.4 2.5 3.6 3.9 6.5 4.3 3 .4 6.7.3 10.9-.3v8.9zm-41.5-54v-8.5H796v8.5h-41.5z" class="st0"/></svg>